<svg xmlns="http://www.w3.org/2000/svg" viewBox="0 0 97.53 97.94"><defs><style>.cls-1{fill:#e8584e;fill-rule:evenodd;}</style></defs><title>website</title><g id="Layer_1" data-name="Layer 1"><path class="cls-1" d="M97.1,46.77a50.36,50.36,0,0,0-.91-8,48.65,48.65,0,0,0-2.78-9.13,51.85,51.85,0,0,0-4.54-8.28A53.76,53.76,0,0,0,83,14.2a51.26,51.26,0,0,0-7.21-5.92,50.23,50.23,0,0,0-8.22-4.49A46.33,46.33,0,0,0,58.45,1a51.22,51.22,0,0,0-9.83-1,51.1,51.1,0,0,0-9.77,1,46.33,46.33,0,0,0-9.07,2.78A50.81,50.81,0,0,0,21.5,8.28a50.19,50.19,0,0,0-7.15,5.92,47.09,47.09,0,0,0-5.93,7.15A41.68,41.68,0,0,0,4,29.63a42.5,42.5,0,0,0-2.88,9.13A40.55,40.55,0,0,0,.2,46.23a16.11,16.11,0,0,0-.11,2.35,46.18,46.18,0,0,0,1,9.72A42.24,42.24,0,0,0,4,67.42,41.4,41.4,0,0,0,8.42,75.7a49.67,49.67,0,0,0,5.93,7.15,43.82,43.82,0,0,0,7.15,5.93,51.3,51.3,0,0,0,8.28,4.43A45.12,45.12,0,0,0,48.62,97a45.14,45.14,0,0,0,18.9-3.79,50.71,50.71,0,0,0,8.22-4.43A44.67,44.67,0,0,0,83,82.85a57.15,57.15,0,0,0,5.92-7.15,51.42,51.42,0,0,0,4.54-8.28,48.33,48.33,0,0,0,2.78-9.12,50.12,50.12,0,0,0,1-9.72,10.29,10.29,0,0,0-.1-1.81ZM48.62,7.1A41.41,41.41,0,0,1,76,17.4c-.11.17-6,9.13-21.62,15A206.08,206.08,0,0,0,38.91,8.28,41.57,41.57,0,0,1,48.62,7.1ZM38.75,8.28h0a.26.26,0,0,1-.16.05c.1,0,.1-.05.16-.05ZM30.9,11.05A237.92,237.92,0,0,1,46.33,35,153,153,0,0,1,8.1,40,41.47,41.47,0,0,1,30.9,11.05ZM17.82,76.23A41.07,41.07,0,0,1,7.2,48.58a10.88,10.88,0,0,1,0-1.33A152.4,152.4,0,0,0,49.8,41.32c1.17,2.3,2.29,4.7,3.36,7.1a4.66,4.66,0,0,0-1.66.48C29.08,56.05,17.82,76.18,17.82,76.18ZM48.62,90A41.27,41.27,0,0,1,23.16,81.2h0a11,11,0,0,1-.91-.75c.27.27.59.48.91.75.1-.16,8.11-17.41,32.56-25.9.11,0,.16,0,.27,0A171.07,171.07,0,0,1,64.8,86.69,41.59,41.59,0,0,1,48.62,90Zm23.17-7.1a178.39,178.39,0,0,0-8.06-29.58A61.2,61.2,0,0,1,89.62,55.1,41.58,41.58,0,0,1,71.79,82.91ZM61.28,46.77a13.56,13.56,0,0,1-.91-2.14c-.7-1.5-1.34-2.88-2-4.38-.26-.53-.53-1.07-.85-1.65,16.39-6.68,23-16.23,23.17-16.39a41.42,41.42,0,0,1,9.23,22.63c.06,1.07.16,2.14.16,3.31C89.51,48,75.42,45,61.28,46.77Z"/></g></svg>