<svg xmlns="http://www.w3.org/2000/svg" viewBox="0 0 157.2 97.94"><defs><style>.cls-1{fill:#e8584e;fill-rule:evenodd;}</style></defs><title>website</title><g id="Layer_1" data-name="Layer 1"><path class="cls-1" d="M19.84,52.78H44.19C49.64,52.78,59,55.17,59,65.49c0,5.45-4.29,11.8-9.65,11.8H19.84ZM98.26,3.83h43.9V18.44H98.26Zm38.05,49h-32.2a15.83,15.83,0,0,1,16.18-14.53c8.5,0,14.77,6,16,14.53ZM103,62.52h53.89V60.13c0-20.23-14.6-36.74-36.64-36.74-22.2,0-36.73,16.51-36.73,36.74s14.53,36.72,36.73,36.72c22,0,32.6-12.62,35.9-29.46H136.31c-1.74,8.66-6.86,14.77-16,14.77-9.33,0-16.42-8.66-17.25-19.64ZM78.69,67.39A24.69,24.69,0,0,0,62,44.36a24.85,24.85,0,0,0,11.64-21A24.46,24.46,0,0,0,49.31-1H.2V96.85H49.31A29.51,29.51,0,0,0,78.69,67.39ZM44.19,38.25H19.84V18.44H44.19a9.91,9.91,0,1,1,0,19.81Z"/></g></svg>