<svg xmlns="http://www.w3.org/2000/svg" viewBox="0 0 169.2 154.27"><defs><style>.cls-1{fill:#fff;}.cls-2{fill:#e8584e;}.cls-3{fill:none;stroke:#e8584e;stroke-miterlimit:10;stroke-width:1.19px;}</style></defs><title>website</title><g id="Layer_1" data-name="Layer 1"><rect class="cls-1" x="8.2" y="20" width="154" height="83"/><path class="cls-2" d="M169.2,13H1.2v97.7H67.52L56.6,128.52l13.11,9.53h35.75l13.1-9.53-10.91-17.87H169.2ZM85.8,15.33A1.79,1.79,0,1,1,84,17.12,1.79,1.79,0,0,1,85.8,15.33Zm76.25,88.17H8.35V20.1h153.7Z"/><path class="cls-2" d="M16.09,27.24V57H69.71V27.24Zm52.43,28.6H17.28V28.44H68.52Z"/><path class="cls-2" d="M92.35,60.61V90.39H146V60.61ZM144.77,89.2H93.54V61.8h51.23Z"/><path class="cls-2" d="M123.33,42.73V53.46h10.72V42.73Zm9.53,9.54h-8.34V43.93h8.34Z"/><path class="cls-2" d="M136.43,42.73V53.46h10.73V42.73ZM146,52.27h-8.34V43.93H146Z"/><line class="cls-3" x1="76.26" y1="27.84" x2="146.56" y2="27.84"/><line class="cls-3" x1="76.86" y1="32.61" x2="147.16" y2="32.61"/><line class="cls-3" x1="76.86" y1="37.37" x2="147.16" y2="37.37"/><line class="cls-3" x1="15.5" y1="62.39" x2="85.79" y2="62.39"/><line class="cls-3" x1="16.09" y1="67.16" x2="86.39" y2="67.16"/><line class="cls-3" x1="16.09" y1="71.93" x2="86.39" y2="71.93"/><line class="cls-3" x1="15.5" y1="76.69" x2="85.79" y2="76.69"/><line class="cls-3" x1="16.09" y1="81.46" x2="86.39" y2="81.46"/><line class="cls-3" x1="16.09" y1="86.22" x2="86.39" y2="86.22"/></g></svg>