<svg xmlns="http://www.w3.org/2000/svg" viewBox="0 0 169.2 154.27"><defs><style>.cls-1{fill:#e8584e;}</style></defs><title>website</title><g id="Layer_1" data-name="Layer 1"><path class="cls-1" d="M135,133.77,82.1,18.43,29.16,133.77H17.21v9H46.05v-9h-7L59.76,88.71h44.68l20.69,45.06h-7v9H147v-9ZM63.89,79.7,82.1,40,100.31,79.7Z"/><rect class="cls-1" x="8.2" y="29.64" width="19.83" height="19.83"/><rect class="cls-1" x="8.2" y="83.64" width="19.83" height="19.83"/><rect class="cls-1" x="8.2" y="56.67" width="19.83" height="19.83"/><polygon class="cls-1" points="148.2 15 146.2 15 146.2 11 18.2 11 18.2 15 16.2 15 16.2 9 148.2 9 148.2 15"/><polygon class="cls-1" points="156.2 143 150.2 143 150.2 141.11 154.2 141.11 154.2 19.89 150.2 19.89 150.2 18 156.2 18 156.2 143"/></g></svg>