<svg xmlns="http://www.w3.org/2000/svg" viewBox="0 0 97.53 97.94"><defs><style>.cls-1{fill:#e8584e;fill-rule:evenodd;}</style></defs><title>website</title><g id="Layer_1" data-name="Layer 1"><path class="cls-1" d="M.5,49.58V97H23.08V32.41H.5Zm96.33,2.67C95.34,40,89.76,32.41,73.23,32.41c-9.68,0-16.22,3.56-19,8.73H54V32.41H36V97H54.81V65c0-8.44,1.67-16.58,12-16.58S78,58,78,65.57V97H97.36V61.53a76.52,76.52,0,0,0-.53-9.28ZM11.79.14A11.29,11.29,0,1,0,23.08,11.43,11.28,11.28,0,0,0,11.79.14Z"/></g></svg>