<svg xmlns="http://www.w3.org/2000/svg" viewBox="0 0 169.2 154.27"><defs><style>.cls-1{fill:#fff;}</style></defs><title>logo-mark-white</title><g id="Layer_1" data-name="Layer 1"><path class="cls-1" d="M55,93.6l-12,15.81a23.42,23.42,0,0,0-3.6-2.47L51.55,91A27.12,27.12,0,0,0,55,93.6Z"/><path class="cls-1" d="M87.79,138.8l-4.26.88L75,98.12a27.41,27.41,0,0,0,4.27-.89Z"/><path class="cls-1" d="M95.34,85.76l14,11.46a23.58,23.58,0,0,0-2.76,3.37l-14-11.46A26.88,26.88,0,0,0,95.34,85.76Z"/><path class="cls-1" d="M100.72,69.7,133,73.14a12,12,0,0,0-.61,4.32L100.27,74A26.93,26.93,0,0,0,100.72,69.7Z"/><path class="cls-1" d="M131.86,36.91a18.5,18.5,0,0,0,2,3.9l-35.16,17a26.79,26.79,0,0,0-1.91-3.92Z"/><path class="cls-1" d="M39.64,40.76l9.78,7.82A27.74,27.74,0,0,0,46.69,52L37,44.22A18.63,18.63,0,0,0,39.64,40.76Z"/><path class="cls-1" d="M87.51,34.93a12.42,12.42,0,0,0,3.72,2.28L87.43,44a28.86,28.86,0,0,0-3.8-2.13Z"/><path class="cls-1" d="M71.11,39.1a29.42,29.42,0,0,0-4.22.3L64.51,5.09l4.34-.31L71.23,39.1Z"/><path class="cls-1" d="M41.74,72.6a27.27,27.27,0,0,0,.88,4.26L6.49,84.35l-.88-4.26Z"/><path class="cls-1" d="M96.39,68.73c0,.17,0,.34,0,.51a23.72,23.72,0,0,1-.46,4.33,25.17,25.17,0,0,1-6.72,12.8A25.21,25.21,0,0,1,78.34,93a23.27,23.27,0,0,1-4.27.88,24.13,24.13,0,0,1-3,.18,25,25,0,0,1-13.45-3.89,24.07,24.07,0,0,1-3.48-2.63A25.2,25.2,0,0,1,46.9,76a25.33,25.33,0,0,1-1.07-7.25,25.13,25.13,0,0,1,4.26-14,24.7,24.7,0,0,1,2.73-3.39,25.15,25.15,0,0,1,18.29-7.85h.43a24.89,24.89,0,0,1,9.95,2.23A25.09,25.09,0,0,1,92.82,55.8a24.08,24.08,0,0,1,1.91,3.92A25.2,25.2,0,0,1,96.39,68.73Z"/><path class="cls-1" d="M47.76,128.61a20.54,20.54,0,1,1-20.54-20.54,20.35,20.35,0,0,1,9.58,2.38,19.88,19.88,0,0,1,3.63,2.44A20.51,20.51,0,0,1,47.76,128.61Z"/><path class="cls-1" d="M147.69,114.6A20.54,20.54,0,1,1,110,103.37a21.33,21.33,0,0,1,2.76-3.38,20.53,20.53,0,0,1,35,14.61Z"/><path class="cls-1" d="M164.68,30.35a14.81,14.81,0,0,1-26.91,8.54,14.74,14.74,0,0,1-2.72-8.54,14.82,14.82,0,0,1,29.63,0Z"/><path class="cls-1" d="M37.8,33.31a14.77,14.77,0,0,1-4.22,8.17,14.8,14.8,0,1,1,4.22-8.17Z"/><path class="cls-1" d="M103.58,25.77a7.93,7.93,0,0,1-7.92,7.92,7.75,7.75,0,0,1-2.27-.34,7.91,7.91,0,1,1,10.19-7.58Z"/><path class="cls-1" d="M147.41,84.4a7.93,7.93,0,0,1-10.15-4.71,7.39,7.39,0,0,1-.42-1.76,7.72,7.72,0,0,1,.68-4.3h0a8,8,0,0,1,7.18-4.57,8,8,0,0,1,3.33.74,7.92,7.92,0,0,1-.62,14.61Z"/></g></svg>