<svg xmlns="http://www.w3.org/2000/svg" viewBox="0 0 169.2 154.27"><defs><style>.cls-1{fill:#e8584e;}</style></defs><title>website</title><g id="Layer_1" data-name="Layer 1"><polygon class="cls-1" points="133.82 98.88 137.36 100.06 130.59 120.27 84.91 104.96 66.25 123.62 55.22 112.59 147.14 20.67 158.17 31.7 101.32 88.55 96.92 101.68 98.94 102.36 103.51 88.72 111.59 91.43 106.85 105.57 108.87 106.25 113.61 92.1 121.7 94.81 116.96 108.96 118.98 109.63 123.72 95.49 131.8 98.2 127.06 112.34 129.08 113.02 133.82 98.88"/><polygon class="cls-1" points="145.3 18.83 80.48 83.66 53.39 110.75 51.55 108.91 62.88 97.58 0.25 76.59 7.02 56.38 10.56 57.57 5.82 71.71 7.84 72.39 12.58 58.24 20.66 60.95 15.92 75.1 17.94 75.77 22.68 61.63 30.76 64.34 26.02 78.48 28.05 79.16 32.79 65.01 40.87 67.72 36.13 81.87 38.15 82.55 42.89 68.4 50.97 71.11 46.23 85.25 48.25 85.93 52.99 71.79 61.08 74.5 56.34 88.64 58.36 89.32 63.1 75.17 71.18 77.88 66.61 91.52 68.35 92.11 68.63 92.2 68.82 91.64 73.2 78.56 79.71 80.75 143.46 17 145.3 18.83"/><polygon class="cls-1" points="68.82 91.64 68.63 92.2 68.35 92.11 68.82 91.64"/><rect class="cls-1" x="152.97" y="6.6" width="10.4" height="20.8" transform="translate(34.31 116.82) rotate(-45)"/><path class="cls-1" d="M94.58,146.48a76.67,76.67,0,0,1-52.44-10.94A2,2,0,0,1,42.6,132l5.62-19.07,14,14-18.09,5.33a72.91,72.91,0,0,0,38.33,11.29,70.89,70.89,0,0,0,11.09-.78c1.37-.21,2.74-.47,4.09-.76,2.41-.52,4-.31,4.44-2.83.55-3-4.52-6.76-6.76-8.39a34.24,34.24,0,0,0-9-4.61c-2.32-.8-1.31-4.49,1-3.69,6.81,2.36,16.17,7.52,19.08,14.67S99.35,145.73,94.58,146.48Z"/></g></svg>